<svg width="20" height="25" viewBox="0 0 20 25" fill="none" xmlns="http://www.w3.org/2000/svg">
<path d="M16.7038 13.072C16.7161 12.13 16.9664 11.2065 17.4313 10.3873C17.8963 9.56801 18.5609 8.87964 19.3633 8.38616C18.8535 7.658 18.181 7.05871 17.3992 6.63584C16.6173 6.21298 15.7477 5.9782 14.8593 5.95012C12.9628 5.75144 11.1251 7.0846 10.1588 7.0846C9.17443 7.0846 7.68662 5.96931 6.08592 6.00318C5.04998 6.03661 4.04036 6.33785 3.15547 6.87753C2.27057 7.41721 1.54058 8.17693 1.03662 9.08265C-1.14655 12.862 0.482362 18.417 2.57297 21.4728C3.61941 22.9685 4.84194 24.6392 6.44264 24.5805C8.00834 24.515 8.59308 23.5815 10.4839 23.5815C12.3555 23.5815 12.9041 24.5805 14.5364 24.5432C16.2173 24.515 17.275 23.0396 18.2842 21.5292C19.0365 20.4635 19.6156 19.2855 20 18.0389C19.0236 17.6261 18.1903 16.935 17.6041 16.0517C17.0179 15.1684 16.7048 14.1321 16.7038 13.072Z" fill="white"/>
<path d="M13.6201 3.93965C14.5362 2.84021 14.9877 1.42696 14.8787 0C13.4789 0.146948 12.1859 0.816033 11.2574 1.87387C10.8036 2.39028 10.4559 2.99104 10.2344 3.64184C10.0128 4.29264 9.92159 4.98072 9.96602 5.66678C10.6661 5.674 11.3586 5.52232 11.9915 5.22315C12.6245 4.92399 13.1813 4.48515 13.6201 3.93965Z" fill="white"/>
</svg>
